<svg width="567" height="541" viewBox="0 0 567 541" fill="none" xmlns="http://www.w3.org/2000/svg">
<path fill-rule="evenodd" clip-rule="evenodd" d="M41.6715 43.7644C41.9755 44.2624 369.448 45.0534 417.715 49.4094C456.075 52.8704 514.918 87.3454 515.959 158.28C517.251 246.376 427.394 285.563 378.449 286.792C307.006 288.586 226.377 286.254 226.367 287.558C226.35 289.839 225.657 320.233 226.271 320.268C232.657 320.629 387.882 319.97 409.402 317.212C459.367 310.808 561.829 275.152 566.042 155.156C568.811 76.2574 497.531 3.7184 421.762 1.2774C342.904 -1.2636 104.735 0.564397 96.3065 1.8024C77.2395 4.6034 57.2325 26.3724 41.6715 43.7644Z" fill="url(#paint0_linear_127_38)"/>
<path fill-rule="evenodd" clip-rule="evenodd" d="M41.6715 43.7644C41.9755 44.2624 367.547 50.5554 415.516 47.3454C415.756 47.3294 447.925 5.00943 447.707 4.93643C441.978 3.01443 430.2 1.64845 420.493 1.32345C340.96 -1.33655 104.809 1.27042 96.3065 1.80242C75.6025 3.09642 42.3535 43.0024 41.6715 43.7644Z" fill="#FDFEFE"/>
<path d="M41.6715 43.7644C44.4405 43.8364 327.105 43.0594 399.582 44.1904C410.36 44.3594 416.531 46.2224 416.701 46.2224" stroke="#E0DEDE" stroke-miterlimit="1.5" stroke-linecap="round" stroke-linejoin="round"/>
<path fill-rule="evenodd" clip-rule="evenodd" d="M507.604 372.271H367.976L319.773 434.375H458.116L507.604 372.271Z" fill="white"/>
<path fill-rule="evenodd" clip-rule="evenodd" d="M439.903 372.267L367.945 372.301L319.78 434.371L391.647 434.367L439.903 372.267Z" fill="#FCFAF9"/>
<path fill-rule="evenodd" clip-rule="evenodd" d="M535.845 338.166C535.845 338.166 425.098 336.896 400.796 338.331C395.95 338.617 391.916 343.475 388.81 346.789C383.543 352.408 367.982 372.267 367.982 372.267H507.61L535.845 338.166Z" fill="#F64722"/>
<path d="M439.899 372.267C447.45 363.022 466.322 341.532 470.031 337.647" stroke="black" stroke-opacity="0.13" stroke-width="0.2" stroke-miterlimit="1.5" stroke-linecap="round" stroke-linejoin="round"/>
<path fill-rule="evenodd" clip-rule="evenodd" d="M255.877 93.8194C255.019 93.8134 222.252 137.596 200.091 168.044C193.924 176.517 163.222 215.12 163.134 245.127C163.054 272.603 162.29 392.77 160.004 540.292C160.004 540.304 229.975 540.596 229.973 540.292C229.824 510.283 228.628 297.897 229.233 229.695C229.393 211.557 241.017 196.247 260.457 192.76C264.178 192.092 300.271 192.966 300.63 192.476C341.779 136.262 379.354 93.8554 378.432 93.8194C371.588 93.5554 301.48 94.1324 255.877 93.8194Z" fill="#EEEEEE"/>
<path fill-rule="evenodd" clip-rule="evenodd" d="M175.691 93.8194C174.834 93.8134 133.687 142.848 111.527 173.296C105.36 181.77 97.5105 198.647 96.9735 220.638C96.3025 248.106 97.4085 394.89 96.3065 539.678C96.3015 540.365 164.554 540.596 164.561 540.292C165.147 515.404 165.044 318.834 164.568 250.631C164.443 232.754 171.713 210.337 185.754 190.277C220.114 141.187 261.364 94.7584 260.443 94.7224C253.598 94.4584 221.295 94.1324 175.691 93.8194Z" fill="#EEEEEE"/>
<path fill-rule="evenodd" clip-rule="evenodd" d="M0.000488281 93.7484C31.1875 97.2304 310.79 91.7784 386.802 93.8194C391.519 93.9464 447.181 107.976 447.488 160.424C447.815 216.273 398.073 234.78 389.409 235.528C351.714 238.781 230.852 236.268 229.913 237.207C229.098 238.021 227.458 275.479 227.822 292.135C227.836 292.771 365.177 294.76 394.747 289.537C450.491 279.69 519.844 242.194 521.977 170.375C525.12 64.5924 435.677 44.1415 392.31 43.9695C340.056 43.7635 75.9665 43.4645 42.3895 44.4955C38.8985 44.6025 19.6595 70.8934 0.000488281 93.7484Z" fill="url(#paint1_linear_127_38)"/>
<path d="M269.91 237.299H229.281V293.042H269.91V237.299Z" fill="#FDFEFE"/>
<path fill-rule="evenodd" clip-rule="evenodd" d="M303.125 43.7644H41.7246L0 93.7484L261.029 93.8194L303.125 43.7644Z" fill="#FEFEFD"/>
<path fill-rule="evenodd" clip-rule="evenodd" d="M416.518 45.9724C416.518 45.9724 404.833 44.2784 398.987 44.2044C381.546 43.9824 303.126 43.7644 303.126 43.7644L261.029 93.7484L378.45 93.8194L416.518 45.9724Z" fill="url(#paint2_linear_127_38)"/>
<path fill-rule="evenodd" clip-rule="evenodd" d="M260.458 93.8194H173.896L141.02 135.28L228.372 134.779L260.458 93.8194Z" fill="#F65632"/>
<path fill-rule="evenodd" clip-rule="evenodd" d="M378.449 93.8191H260.457L227.984 134.835L345.202 135.281L378.449 93.8191Z" fill="url(#paint3_linear_127_38)"/>
<path fill-rule="evenodd" clip-rule="evenodd" d="M378.447 93.8168H173.984L160.003 111.398L362.691 112.149L378.447 93.8168Z" fill="black" fill-opacity="0.59"/>
<path d="M286.774 236.95H229.187V320.358H286.774V236.95Z" fill="#FB4C27"/>
<defs>
<linearGradient id="paint0_linear_127_38" x1="453.424" y1="29.4554" x2="433.857" y2="16.4605" gradientUnits="userSpaceOnUse">
<stop stop-color="#FDFEFE"/>
<stop offset="0.8" stop-color="#F0F0F0"/>
<stop offset="1" stop-color="#E7E7E7"/>
</linearGradient>
<linearGradient id="paint1_linear_127_38" x1="407.707" y1="71.3825" x2="401.912" y2="66.8186" gradientUnits="userSpaceOnUse">
<stop stop-color="#FDFEFE"/>
<stop offset="1" stop-color="#F1EDED"/>
</linearGradient>
<linearGradient id="paint2_linear_127_38" x1="291.278" y1="71.1204" x2="284.86" y2="66.1129" gradientUnits="userSpaceOnUse">
<stop stop-color="#FDFEFE"/>
<stop offset="1" stop-color="#F1EDED"/>
</linearGradient>
<linearGradient id="paint3_linear_127_38" x1="245.85" y1="121.169" x2="242.039" y2="118.112" gradientUnits="userSpaceOnUse">
<stop stop-color="#F65632"/>
<stop offset="1" stop-color="#D02D08"/>
</linearGradient>
</defs>
</svg>
